<svg id="Layer_1" data-name="Layer 1" xmlns="http://www.w3.org/2000/svg" viewBox="0 0 225 225"><defs><style>.cls-1{fill:red;}.cls-2{fill:#fff;}</style></defs><title>LiiLab Logo</title><path class="cls-1" d="M20.41,94.73c29.69-29.25,59-58.9,88.55-88.3,29.35,29.5,58.86,58.83,88.21,88.33q-32.44,32.31-64.78,64.74c-.28.25-.86.73-1.15,1-2.6-3-5.64-5.5-8.21-8.49,19.23-19,38.23-38.19,57.36-57.26Q144.68,59,108.93,23.24,73.05,59.18,37.1,95.06L94.33,152.3c-2.82,2.78-5.61,5.58-8.4,8.39-21.62-21.72-43.36-43.34-65-65.06Z"/><path class="cls-1" d="M90.17,49.61c6.38-6,12.28-12.41,18.65-18.38,14,14.13,28,28.12,42.1,42.15-6.18,6.17-12.39,12.34-18.54,18.56C118.33,77.81,104.1,63.85,90.17,49.61Z"/><path class="cls-1" d="M86,54.13q21.19,21,42.25,42.21-9.37,9.18-18.56,18.56Q88.55,93.82,67.48,72.71C73.67,66.53,79.89,60.39,86,54.13Z"/><path class="cls-1" d="M154.25,76.13c6.1,6.25,12.46,12.25,18.42,18.62-21.36,21-42.36,42.32-63.59,63.44q-31.65-31.87-63.5-63.57,9-9,18.06-18c14.5,14.61,29.12,29.11,43.64,43.71a13,13,0,0,0,1.65,1.38C123.92,106.4,139.29,91.46,154.25,76.13Z"/><path class="cls-1" d="M88.53,163.42c2.83-2.71,5.54-5.54,8.35-8.28,3.9,3.93,7.8,7.88,11.77,11.75,3.87-4,7.83-7.83,11.72-11.78,2.85,2.77,5.62,5.6,8.42,8.42-6.76,6.67-13.33,13.54-20.22,20.07C101.84,176.94,95,170.35,88.53,163.42Z"/><path class="cls-2" d="M27.59,191.62H31v23.65h11.4v2.87H27.59Z"/><path class="cls-2" d="M66.84,193.75a2.16,2.16,0,0,1-4.32,0,2.12,2.12,0,0,1,2.18-2.17A2.07,2.07,0,0,1,66.84,193.75ZM63,218.14v-19h3.48v19Z"/><path class="cls-2" d="M92.9,193.75a2.16,2.16,0,0,1-4.31,0,2.12,2.12,0,0,1,2.17-2.17A2.07,2.07,0,0,1,92.9,193.75ZM89,218.14v-19H92.5v19Z"/><path class="cls-2" d="M115.2,191.62h3.45v23.65h11.4v2.87H115.2Z"/><path class="cls-2" d="M161.18,218.14l-.27-2.4h-.12a7.17,7.17,0,0,1-5.86,2.83c-3.88,0-5.86-2.71-5.86-5.47,0-4.6,4.12-7.12,11.52-7.08v-.39c0-1.57-.44-4.41-4.36-4.41a9.51,9.51,0,0,0-5,1.42l-.8-2.28a11.91,11.91,0,0,1,6.3-1.69c5.86,0,7.28,4,7.28,7.78v7.13a26.36,26.36,0,0,0,.32,4.56Zm-.51-9.72c-3.8-.08-8.12.59-8.12,4.29a3.08,3.08,0,0,0,3.29,3.31,4.77,4.77,0,0,0,4.63-3.19,3.6,3.6,0,0,0,.2-1.1Z"/><path class="cls-2" d="M186.3,218.14c.08-1.3.16-3.23.16-4.92v-23h3.44v12H190a7.14,7.14,0,0,1,6.53-3.5c4.75,0,8.12,3.93,8.08,9.71,0,6.81-4.31,10.19-8.59,10.19a6.82,6.82,0,0,1-6.41-3.58h-.12l-.16,3.15Zm3.6-7.63a6.48,6.48,0,0,0,.16,1.26,5.36,5.36,0,0,0,5.23,4c3.64,0,5.82-2.95,5.82-7.32,0-3.82-2-7.08-5.7-7.08a5.54,5.54,0,0,0-5.31,4.25,6.63,6.63,0,0,0-.2,1.41Z"/></svg>